<svg aria-hidden="true" style="position: absolute; width: 0; height: 0; overflow: hidden;" version="1.1" xmlns="http://www.w3.org/2000/svg" xmlns:xlink="http://www.w3.org/1999/xlink">
<defs>
<symbol id="icon-bell" viewBox="0 0 32 32">
<path d="M28 25.333v1.333h-24v-1.333l2.667-2.667v-8c0-4.133 2.707-7.773 6.667-8.947 0-0.133 0-0.253 0-0.387 0-1.473 1.194-2.667 2.667-2.667v0c1.473 0 2.667 1.194 2.667 2.667v0c0 0.133 0 0.253 0 0.387 3.96 1.173 6.667 4.813 6.667 8.947v8l2.667 2.667zM18.667 28c0 1.473-1.194 2.667-2.667 2.667v0c-1.473 0-2.667-1.194-2.667-2.667v0z"></path>
</symbol>
<symbol id="icon-email" viewBox="0 0 32 32">
<path d="M29.333 8c0-1.467-1.2-2.667-2.667-2.667h-21.333c-1.467 0-2.667 1.2-2.667 2.667v16c0 1.467 1.2 2.667 2.667 2.667h21.333c1.467 0 2.667-1.2 2.667-2.667v-16zM26.667 8l-10.667 6.667-10.667-6.667h21.333zM26.667 24h-21.333v-13.333l10.667 6.667 10.667-6.667v13.333z"></path>
</symbol>
<symbol id="icon-exit" viewBox="0 0 32 32">
<path d="M25.333 4h-18.667c-1.48 0-2.667 1.187-2.667 2.667v5.333h2.667v-5.333h18.667v18.667h-18.667v-5.333h-2.667v5.333c0 1.473 1.194 2.667 2.667 2.667v0h18.667c1.473 0 2.667-1.194 2.667-2.667v0-18.667c0-1.48-1.2-2.667-2.667-2.667zM13.44 20.773l1.893 1.893 6.667-6.667-6.667-6.667-1.893 1.88 3.453 3.453h-12.893v2.667h12.893l-3.453 3.44z"></path>
</symbol>
<symbol id="icon-eye" viewBox="0 0 32 32">
<path d="M16 12c-2.209 0-4 1.791-4 4v0c0 2.209 1.791 4 4 4v0c2.209 0 4-1.791 4-4v0c0-2.209-1.791-4-4-4v0zM16 22.667c-3.682 0-6.667-2.985-6.667-6.667v0c0-3.682 2.985-6.667 6.667-6.667v0c3.682 0 6.667 2.985 6.667 6.667v0c0 3.682-2.985 6.667-6.667 6.667v0zM16 6c-6.667 0-12.36 4.147-14.667 10 2.307 5.853 8 10 14.667 10s12.36-4.147 14.667-10c-2.307-5.853-8-10-14.667-10z"></path>
</symbol>
<symbol id="icon-heart" viewBox="0 0 32 32">
<path d="M16 28.467l-1.933-1.76c-6.867-6.227-11.4-10.347-11.4-15.373 0-4.12 3.227-7.333 7.333-7.333 2.32 0 4.547 1.080 6 2.773 1.453-1.693 3.68-2.773 6-2.773 4.107 0 7.333 3.213 7.333 7.333 0 5.027-4.533 9.147-11.4 15.373l-1.933 1.76z"></path>
</symbol>
<symbol id="icon-house" viewBox="0 0 36 32">
<path d="M33.987 17.975c1.063 0 2-0.875 2-2.006 0.063-0.563-0.188-1.063-0.688-1.5l-3.3-2.906v-7.563c0-1.106-0.894-2-2-2h-2c-1.106 0-2 0.894-2 2v2.294l-6.656-5.856c-0.375-0.313-0.875-0.438-1.313-0.438s-0.938 0.063-1.375 0.5l-16.031 13.969c-0.438 0.438-0.625 0.938-0.625 1.5 0 1.125 0.875 2.006 2 2.006h2v4.356c-0.006 0.056-0.006 0.113-0.006 0.175v6.994c0 1.381 1.119 2.5 2.5 2.5h1c0.075 0 0.15-0.006 0.225-0.012 0.094 0.006 0.188 0.012 0.281 0.012h3.5c1.381 0 2.5-1.119 2.5-2.5v-5.5c0-1.106 0.894-2 2-2h4c1.106 0 2 0.894 2 2v5.5c0 1.381 1.119 2.5 2.5 2.5h3.531c0.087 0 0.175 0 0.262-0.006 0.069 0.006 0.137 0.006 0.206 0.006h1c1.381 0 2.5-1.119 2.5-2.5v-1.012c0.019-0.163 0.031-0.331 0.031-0.506l-0.044-10.012h2z"></path>
</symbol>
<symbol id="icon-layers" viewBox="0 0 32 32">
<path d="M16 16c-0.842 0-1.684-0.149-2.34-0.448l-9.25-4.218c-0.423-0.193-1.41-0.756-1.41-1.819s0.987-1.625 1.411-1.82l9.33-4.254c1.286-0.587 3.226-0.587 4.512 0l9.336 4.254c0.424 0.193 1.411 0.756 1.411 1.82s-0.987 1.625-1.411 1.819l-9.25 4.218c-0.655 0.299-1.497 0.448-2.339 0.448z"></path>
<path d="M27.585 14.176l-0.943-0.426-8.298 3.796c-0.656 0.3-1.5 0.449-2.34 0.449s-1.683-0.149-2.339-0.449l-8.303-3.796-0.951 0.428c-0.424 0.193-1.411 0.76-1.411 1.822s0.987 1.63 1.41 1.823l9.25 4.227c0.652 0.3 1.496 0.45 2.34 0.45s1.684-0.15 2.34-0.449l9.242-4.226c0.426-0.193 1.418-0.757 1.418-1.825s-0.986-1.629-1.415-1.824z"></path>
<path d="M27.585 20.675l-0.943-0.425-8.298 3.793c-0.656 0.299-1.5 0.449-2.34 0.449s-1.683-0.149-2.339-0.449l-8.303-3.793-0.951 0.427c-0.424 0.193-1.411 0.76-1.411 1.823s0.987 1.629 1.41 1.822l9.25 4.224c0.652 0.299 1.499 0.454 2.34 0.454s1.68-0.155 2.336-0.454l9.245-4.223c0.426-0.192 1.419-0.756 1.419-1.823s-0.986-1.629-1.415-1.825z"></path>
</symbol>
<symbol id="icon-magnify" viewBox="0 0 32 32">
<path d="M12.667 4c4.786 0 8.667 3.88 8.667 8.667v0c0 2.147-0.787 4.12-2.080 5.64l0.36 0.36h1.053l6.667 6.667-2 2-6.667-6.667v-1.053l-0.36-0.36c-1.52 1.293-3.493 2.080-5.64 2.080-4.786 0-8.667-3.88-8.667-8.667v0c0-4.786 3.88-8.667 8.667-8.667v0zM12.667 6.667c-3.333 0-6 2.667-6 6s2.667 6 6 6c3.333 0 6-2.667 6-6s-2.667-6-6-6z"></path>
</symbol>
<symbol id="icon-bubbles" viewBox="0 0 36 32">
<path d="M34 28.161c0 1.422 0.813 2.653 2 3.256v0.498c-0.332 0.045-0.671 0.070-1.016 0.070-2.125 0-4.042-0.892-5.398-2.321-0.819 0.218-1.688 0.336-2.587 0.336-4.971 0-9-3.582-9-8s4.029-8 9-8c4.971 0 9 3.582 9 8 0 1.73-0.618 3.331-1.667 4.64-0.213 0.463-0.333 0.979-0.333 1.522zM7.209 6.912c-2.069 1.681-3.209 3.843-3.209 6.088 0 1.259 0.35 2.481 1.039 3.63 0.711 1.185 1.781 2.268 3.093 3.133 0.949 0.625 1.587 1.623 1.755 2.747 0.056 0.375 0.091 0.753 0.105 1.129 0.233-0.194 0.461-0.401 0.684-0.624 0.755-0.755 1.774-1.172 2.828-1.172 0.168 0 0.336 0.011 0.505 0.032 0.655 0.083 1.323 0.125 1.987 0.126v4c-0.848-0-1.68-0.054-2.492-0.158-3.437 3.437-7.539 4.053-11.505 4.144v-0.841c2.142-1.049 4-2.961 4-5.145 0-0.305-0.024-0.604-0.068-0.897-3.619-2.383-5.932-6.024-5.932-10.103 0-7.18 7.163-13 16-13 8.702 0 15.781 5.644 15.995 12.672-1.284-0.572-2.683-0.919-4.133-1.018-0.36-1.752-1.419-3.401-3.070-4.742-1.104-0.897-2.404-1.606-3.863-2.108-1.553-0.534-3.211-0.804-4.928-0.804s-3.375 0.271-4.928 0.804c-1.46 0.502-2.76 1.211-3.863 2.108z"></path>
</symbol>
<symbol id="icon-edit" viewBox="0 0 24 24">
<path d="M5,3C3.89,3 3,3.89 3,5V19A2,2 0 0,0 5,21H19A2,2 0 0,0 21,19V12H19V19H5V5H12V3H5M17.78,4C17.61,4 17.43,4.07 17.3,4.2L16.08,5.41L18.58,7.91L19.8,6.7C20.06,6.44 20.06,6 19.8,5.75L18.25,4.2C18.12,4.07 17.95,4 17.78,4M15.37,6.12L8,13.5V16H10.5L17.87,8.62L15.37,6.12Z"></path>
</symbol>
<symbol id="icon-stats" viewBox="0 0 24 24"><path d="M16,11.78L20.24,4.45L21.97,5.45L16.74,14.5L10.23,10.75L5.46,19H22V21H2V3H4V17.54L9.5,8L16,11.78Z" />
</symbol>
</defs>
</svg>
